<svg width="13" height="13" viewBox="0 0 13 13" fill="none" xmlns="http://www.w3.org/2000/svg">
<path fill-rule="evenodd" clip-rule="evenodd" d="M12.4951 1.64515C12.57 1.57042 12.6293 1.48167 12.6699 1.38399C12.7104 1.28631 12.7313 1.1816 12.7314 1.07585C12.7314 0.970088 12.7107 0.865355 12.6703 0.767623C12.6298 0.669892 12.5706 0.581077 12.4958 0.50625C12.4211 0.431423 12.3324 0.372049 12.2347 0.331517C12.137 0.290986 12.0323 0.270091 11.9265 0.270026C11.8208 0.269961 11.7161 0.290727 11.6183 0.331138C11.5206 0.37155 11.4318 0.430815 11.3569 0.50555L6.50035 5.36215L1.64515 0.50555C1.49403 0.35443 1.28907 0.269531 1.07535 0.269531C0.861634 0.269531 0.65667 0.35443 0.50555 0.50555C0.35443 0.65667 0.269531 0.861634 0.269531 1.07535C0.269531 1.28907 0.35443 1.49403 0.50555 1.64515L5.36215 6.50035L0.50555 11.3556C0.430723 11.4304 0.371367 11.5192 0.33087 11.617C0.290374 11.7147 0.269531 11.8195 0.269531 11.9254C0.269531 12.0312 0.290374 12.136 0.33087 12.2337C0.371367 12.3315 0.430723 12.4203 0.50555 12.4951C0.65667 12.6463 0.861634 12.7312 1.07535 12.7312C1.18117 12.7312 1.28596 12.7103 1.38372 12.6698C1.48149 12.6293 1.57032 12.57 1.64515 12.4951L6.50035 7.63855L11.3569 12.4951C11.5081 12.6461 11.713 12.7308 11.9265 12.7307C12.1401 12.7305 12.3449 12.6456 12.4958 12.4944C12.6468 12.3433 12.7315 12.1384 12.7314 11.9249C12.7312 11.7113 12.6463 11.5065 12.4951 11.3556L7.63855 6.50035L12.4951 1.64515Z" fill="#5D5D5D"/>
</svg>
