<svg width="677" height="956" viewBox="0 0 677 956" fill="none" xmlns="http://www.w3.org/2000/svg">
<rect x="18.6795" y="452.621" width="7.18447" height="7.18447" rx="3.59223" fill="#F1E6FF"/>
<rect x="18.6795" y="474.175" width="7.18447" height="7.18447" rx="3.59223" fill="#F1E6FF"/>
<rect y="462.68" width="7.18447" height="7.18447" rx="3.59223" fill="#F1E6FF"/>
<rect x="18.6795" y="517.282" width="7.18447" height="7.18447" rx="3.59223" fill="#F1E6FF"/>
<rect x="40.2328" y="344.854" width="7.18447" height="7.18447" rx="3.59223" fill="#F1E6FF"/>
<rect x="40.2328" y="366.408" width="7.18447" height="7.18447" rx="3.59223" fill="#F1E6FF"/>
<rect x="40.2328" y="452.621" width="7.18447" height="7.18447" rx="3.59223" fill="#F1E6FF"/>
<rect x="40.2328" y="474.175" width="7.18447" height="7.18447" rx="3.59223" fill="#F1E6FF"/>
<rect x="40.2328" y="517.282" width="7.18447" height="7.18447" rx="3.59223" fill="#F1E6FF"/>
<rect x="40.2328" y="538.835" width="7.18447" height="7.18447" rx="3.59223" fill="#F1E6FF"/>
<rect x="61.7862" y="323.301" width="7.18447" height="7.18447" rx="3.59223" fill="#F1E6FF"/>
<rect x="61.7862" y="344.854" width="7.18447" height="7.18447" rx="3.59223" fill="#F1E6FF"/>
<rect x="61.7862" y="366.408" width="7.18447" height="7.18447" rx="3.59223" fill="#F1E6FF"/>
<rect x="61.7862" y="387.961" width="7.18447" height="7.18447" rx="3.59223" fill="#F1E6FF"/>
<rect x="61.7862" y="452.621" width="7.18447" height="7.18447" rx="3.59223" fill="#F1E6FF"/>
<rect x="61.7862" y="474.175" width="7.18447" height="7.18447" rx="3.59223" fill="#F1E6FF"/>
<rect x="61.7862" y="495.728" width="7.18447" height="7.18447" rx="3.59223" fill="#F1E6FF"/>
<rect x="61.7862" y="517.282" width="7.18447" height="7.18447" rx="3.59223" fill="#F1E6FF"/>
<rect x="61.7862" y="538.835" width="7.18447" height="7.18447" rx="3.59223" fill="#F1E6FF"/>
<rect x="61.7862" y="560.388" width="7.18447" height="7.18447" rx="3.59223" fill="#F1E6FF"/>
<rect x="83.3395" y="323.301" width="7.18447" height="7.18447" rx="3.59223" fill="#F1E6FF"/>
<rect x="83.3395" y="344.854" width="7.18447" height="7.18447" rx="3.59223" fill="#F1E6FF"/>
<rect x="83.3395" y="366.408" width="7.18447" height="7.18447" rx="3.59223" fill="#F1E6FF"/>
<rect x="83.3395" y="387.961" width="7.18447" height="7.18447" rx="3.59223" fill="#F1E6FF"/>
<rect x="83.3395" y="409.515" width="7.18447" height="7.18447" rx="3.59223" fill="#F1E6FF"/>
<rect x="83.3395" y="431.068" width="7.18447" height="7.18447" rx="3.59223" fill="#F1E6FF"/>
<rect x="83.3395" y="452.621" width="7.18447" height="7.18447" rx="3.59223" fill="#F1E6FF"/>
<rect x="83.3395" y="474.175" width="7.18447" height="7.18447" rx="3.59223" fill="#F1E6FF"/>
<rect x="83.3395" y="495.728" width="7.18447" height="7.18447" rx="3.59223" fill="#F1E6FF"/>
<rect x="83.3395" y="517.282" width="7.18447" height="7.18447" rx="3.59223" fill="#F1E6FF"/>
<rect x="83.3395" y="538.835" width="7.18447" height="7.18447" rx="3.59223" fill="#F1E6FF"/>
<rect x="83.3395" y="560.388" width="7.18447" height="7.18447" rx="3.59223" fill="#F1E6FF"/>
<rect x="104.893" y="323.301" width="7.18447" height="7.18447" rx="3.59223" fill="#F1E6FF"/>
<rect x="104.893" y="344.854" width="7.18447" height="7.18447" rx="3.59223" fill="#F1E6FF"/>
<rect x="104.893" y="366.408" width="7.18447" height="7.18447" rx="3.59223" fill="#F1E6FF"/>
<rect x="104.893" y="387.961" width="7.18447" height="7.18447" rx="3.59223" fill="#F1E6FF"/>
<rect x="104.893" y="409.515" width="7.18447" height="7.18447" rx="3.59223" fill="#F1E6FF"/>
<rect x="104.893" y="431.068" width="7.18447" height="7.18447" rx="3.59223" fill="#F1E6FF"/>
<rect x="104.893" y="452.621" width="7.18447" height="7.18447" rx="3.59223" fill="#F1E6FF"/>
<rect x="104.893" y="474.175" width="7.18447" height="7.18447" rx="3.59223" fill="#F1E6FF"/>
<rect x="104.893" y="495.728" width="7.18447" height="7.18447" rx="3.59223" fill="#F1E6FF"/>
<rect x="104.893" y="517.282" width="7.18447" height="7.18447" rx="3.59223" fill="#F1E6FF"/>
<rect x="104.893" y="538.835" width="7.18447" height="7.18447" rx="3.59223" fill="#F1E6FF"/>
<rect x="104.893" y="560.388" width="7.18447" height="7.18447" rx="3.59223" fill="#F1E6FF"/>
<rect x="126.447" y="43.1068" width="7.18447" height="7.18447" rx="3.59223" fill="#F1E6FF"/>
<rect x="126.447" y="301.748" width="7.18447" height="7.18447" rx="3.59223" fill="#F1E6FF"/>
<rect x="126.447" y="323.301" width="7.18447" height="7.18447" rx="3.59223" fill="#F1E6FF"/>
<rect x="126.447" y="344.854" width="7.18447" height="7.18447" rx="3.59223" fill="#F1E6FF"/>
<rect x="126.447" y="366.408" width="7.18447" height="7.18447" rx="3.59223" fill="#F1E6FF"/>
<rect x="126.447" y="387.961" width="7.18447" height="7.18447" rx="3.59223" fill="#F1E6FF"/>
<rect x="126.447" y="409.515" width="7.18447" height="7.18447" rx="3.59223" fill="#F1E6FF"/>
<rect x="126.447" y="431.068" width="7.18447" height="7.18447" rx="3.59223" fill="#F1E6FF"/>
<rect x="126.447" y="452.621" width="7.18447" height="7.18447" rx="3.59223" fill="#F1E6FF"/>
<rect x="126.447" y="474.175" width="7.18447" height="7.18447" rx="3.59223" fill="#F1E6FF"/>
<rect x="126.447" y="495.728" width="7.18447" height="7.18447" rx="3.59223" fill="#F1E6FF"/>
<rect x="126.447" y="517.282" width="7.18447" height="7.18447" rx="3.59223" fill="#F1E6FF"/>
<rect x="148" y="21.5534" width="7.18447" height="7.18447" rx="3.59223" fill="#F1E6FF"/>
<rect x="148" y="43.1068" width="7.18447" height="7.18447" rx="3.59223" fill="#F1E6FF"/>
<rect x="148" y="258.641" width="7.18447" height="7.18447" rx="3.59223" fill="#F1E6FF"/>
<rect x="148" y="280.194" width="7.18447" height="7.18447" rx="3.59223" fill="#F1E6FF"/>
<rect x="148" y="301.748" width="7.18447" height="7.18447" rx="3.59223" fill="#F1E6FF"/>
<rect x="148" y="323.301" width="7.18447" height="7.18447" rx="3.59223" fill="#F1E6FF"/>
<rect x="148" y="344.854" width="7.18447" height="7.18447" rx="3.59223" fill="#F1E6FF"/>
<rect x="148" y="366.408" width="7.18447" height="7.18447" rx="3.59223" fill="#F1E6FF"/>
<rect x="148" y="387.961" width="7.18447" height="7.18447" rx="3.59223" fill="#F1E6FF"/>
<rect x="148" y="409.515" width="7.18447" height="7.18447" rx="3.59223" fill="#F1E6FF"/>
<rect x="148" y="431.068" width="7.18447" height="7.18447" rx="3.59223" fill="#F1E6FF"/>
<rect x="148" y="452.621" width="7.18447" height="7.18447" rx="3.59223" fill="#F1E6FF"/>
<rect x="148" y="474.175" width="7.18447" height="7.18447" rx="3.59223" fill="#F1E6FF"/>
<rect x="148" y="495.728" width="7.18447" height="7.18447" rx="3.59223" fill="#F1E6FF"/>
<rect x="148" y="517.282" width="7.18447" height="7.18447" rx="3.59223" fill="#F1E6FF"/>
<rect x="148" y="538.835" width="7.18447" height="7.18447" rx="3.59223" fill="#F1E6FF"/>
<rect x="148" y="560.388" width="7.18447" height="7.18447" rx="3.59223" fill="#F1E6FF"/>
<rect x="148" y="581.942" width="7.18447" height="7.18447" rx="3.59223" fill="#F1E6FF"/>
<rect x="148" y="603.495" width="7.18447" height="7.18447" rx="3.59223" fill="#F1E6FF"/>
<rect x="148" y="625.049" width="7.18447" height="7.18447" rx="3.59223" fill="#7000FF"/>
<rect x="148" y="646.602" width="7.18447" height="7.18447" rx="3.59223" fill="#7000FF"/>
<rect x="148" y="668.155" width="7.18447" height="7.18447" rx="3.59223" fill="#7000FF"/>
<rect x="169.553" width="7.18447" height="7.18447" rx="3.59223" fill="#F1E6FF"/>
<rect x="169.553" y="21.5534" width="7.18447" height="7.18447" rx="3.59223" fill="#F1E6FF"/>
<rect x="169.553" y="43.1068" width="7.18447" height="7.18447" rx="3.59223" fill="#F1E6FF"/>
<rect x="169.553" y="64.6602" width="7.18447" height="7.18447" rx="3.59223" fill="#F1E6FF"/>
<rect x="169.553" y="86.2136" width="7.18447" height="7.18447" rx="3.59223" fill="#F1E6FF"/>
<rect x="169.553" y="107.767" width="7.18447" height="7.18447" rx="3.59223" fill="#F1E6FF"/>
<rect x="169.553" y="129.32" width="7.18447" height="7.18447" rx="3.59223" fill="#F1E6FF"/>
<rect x="169.553" y="237.087" width="7.18447" height="7.18447" rx="3.59223" fill="#F1E6FF"/>
<rect x="169.553" y="258.641" width="7.18447" height="7.18447" rx="3.59223" fill="#F1E6FF"/>
<rect x="169.553" y="280.194" width="7.18447" height="7.18447" rx="3.59223" fill="#F1E6FF"/>
<rect x="169.553" y="301.748" width="7.18447" height="7.18447" rx="3.59223" fill="#F1E6FF"/>
<rect x="169.553" y="323.301" width="7.18447" height="7.18447" rx="3.59223" fill="#F1E6FF"/>
<rect x="169.553" y="344.854" width="7.18447" height="7.18447" rx="3.59223" fill="#F1E6FF"/>
<rect x="169.553" y="366.408" width="7.18447" height="7.18447" rx="3.59223" fill="#F1E6FF"/>
<rect x="169.553" y="387.961" width="7.18447" height="7.18447" rx="3.59223" fill="#F1E6FF"/>
<rect x="169.553" y="409.515" width="7.18447" height="7.18447" rx="3.59223" fill="#F1E6FF"/>
<rect x="169.553" y="431.068" width="7.18447" height="7.18447" rx="3.59223" fill="#F1E6FF"/>
<rect x="169.553" y="452.621" width="7.18447" height="7.18447" rx="3.59223" fill="#F1E6FF"/>
<rect x="169.553" y="474.175" width="7.18447" height="7.18447" rx="3.59223" fill="#F1E6FF"/>
<rect x="169.553" y="495.728" width="7.18447" height="7.18447" rx="3.59223" fill="#F1E6FF"/>
<rect x="169.553" y="517.282" width="7.18447" height="7.18447" rx="3.59223" fill="#F1E6FF"/>
<rect x="169.553" y="538.835" width="7.18447" height="7.18447" rx="3.59223" fill="#F1E6FF"/>
<rect x="169.553" y="560.388" width="7.18447" height="7.18447" rx="3.59223" fill="#F1E6FF"/>
<rect x="169.553" y="581.942" width="7.18447" height="7.18447" rx="3.59223" fill="#F1E6FF"/>
<rect x="169.553" y="603.495" width="7.18447" height="7.18447" rx="3.59223" fill="#7000FF"/>
<rect x="169.553" y="625.049" width="7.18447" height="7.18447" rx="3.59223" fill="#7000FF"/>
<rect x="169.553" y="646.602" width="7.18447" height="7.18447" rx="3.59223" fill="#7000FF"/>
<rect x="169.553" y="668.155" width="7.18447" height="7.18447" rx="3.59223" fill="#7000FF"/>
<rect x="169.553" y="689.709" width="7.18447" height="7.18447" rx="3.59223" fill="#F1E6FF"/>
<rect x="169.553" y="711.262" width="7.18447" height="7.18447" rx="3.59223" fill="#F1E6FF"/>
<rect x="169.553" y="732.816" width="7.18447" height="7.18447" rx="3.59223" fill="#F1E6FF"/>
<rect x="191.107" width="7.18447" height="7.18447" rx="3.59223" fill="#F1E6FF"/>
<rect x="191.107" y="21.5534" width="7.18447" height="7.18447" rx="3.59223" fill="#F1E6FF"/>
<rect x="191.107" y="43.1068" width="7.18447" height="7.18447" rx="3.59223" fill="#F1E6FF"/>
<rect x="191.107" y="64.6602" width="7.18447" height="7.18447" rx="3.59223" fill="#F1E6FF"/>
<rect x="191.107" y="86.2136" width="7.18447" height="7.18447" rx="3.59223" fill="#F1E6FF"/>
<rect x="191.107" y="107.767" width="7.18447" height="7.18447" rx="3.59223" fill="#F1E6FF"/>
<rect x="191.107" y="129.32" width="7.18447" height="7.18447" rx="3.59223" fill="#F1E6FF"/>
<rect x="191.107" y="150.874" width="7.18447" height="7.18447" rx="3.59223" fill="#F1E6FF"/>
<rect x="191.107" y="172.427" width="7.18447" height="7.18447" rx="3.59223" fill="#F1E6FF"/>
<rect x="191.107" y="193.981" width="7.18447" height="7.18447" rx="3.59223" fill="#F1E6FF"/>
<rect x="191.107" y="215.534" width="7.18447" height="7.18447" rx="3.59223" fill="#F1E6FF"/>
<rect x="191.107" y="237.087" width="7.18447" height="7.18447" rx="3.59223" fill="#F1E6FF"/>
<rect x="191.107" y="258.641" width="7.18447" height="7.18447" rx="3.59223" fill="#F1E6FF"/>
<rect x="191.107" y="280.194" width="7.18447" height="7.18447" rx="3.59223" fill="#F1E6FF"/>
<rect x="191.107" y="301.748" width="7.18447" height="7.18447" rx="3.59223" fill="#F1E6FF"/>
<rect x="191.107" y="323.301" width="7.18447" height="7.18447" rx="3.59223" fill="#F1E6FF"/>
<rect x="191.107" y="344.854" width="7.18447" height="7.18447" rx="3.59223" fill="#F1E6FF"/>
<rect x="191.107" y="366.408" width="7.18447" height="7.18447" rx="3.59223" fill="#F1E6FF"/>
<rect x="191.107" y="387.961" width="7.18447" height="7.18447" rx="3.59223" fill="#F1E6FF"/>
<rect x="191.107" y="409.515" width="7.18447" height="7.18447" rx="3.59223" fill="#F1E6FF"/>
<rect x="191.107" y="431.068" width="7.18447" height="7.18447" rx="3.59223" fill="#F1E6FF"/>
<rect x="191.107" y="452.621" width="7.18447" height="7.18447" rx="3.59223" fill="#F1E6FF"/>
<rect x="191.107" y="474.175" width="7.18447" height="7.18447" rx="3.59223" fill="#F1E6FF"/>
<rect x="191.107" y="495.728" width="7.18447" height="7.18447" rx="3.59223" fill="#F1E6FF"/>
<rect x="191.107" y="517.282" width="7.18447" height="7.18447" rx="3.59223" fill="#F1E6FF"/>
<rect x="191.107" y="538.835" width="7.18447" height="7.18447" rx="3.59223" fill="#F1E6FF"/>
<rect x="191.107" y="560.388" width="7.18447" height="7.18447" rx="3.59223" fill="#F1E6FF"/>
<rect x="191.107" y="581.942" width="7.18447" height="7.18447" rx="3.59223" fill="#F1E6FF"/>
<rect x="191.107" y="603.495" width="7.18447" height="7.18447" rx="3.59223" fill="#F1E6FF"/>
<rect x="191.107" y="625.049" width="7.18447" height="7.18447" rx="3.59223" fill="#7000FF"/>
<rect x="191.107" y="646.602" width="7.18447" height="7.18447" rx="3.59223" fill="#7000FF"/>
<rect x="191.107" y="668.155" width="7.18447" height="7.18447" rx="3.59223" fill="#F1E6FF"/>
<rect x="191.107" y="689.709" width="7.18447" height="7.18447" rx="3.59223" fill="#F1E6FF"/>
<rect x="191.107" y="711.262" width="7.18447" height="7.18447" rx="3.59223" fill="#F1E6FF"/>
<rect x="191.107" y="732.816" width="7.18447" height="7.18447" rx="3.59223" fill="#F1E6FF"/>
<rect x="191.107" y="754.369" width="7.18447" height="7.18447" rx="3.59223" fill="#F1E6FF"/>
<rect x="191.107" y="775.922" width="7.18447" height="7.18447" rx="3.59223" fill="#F1E6FF"/>
<rect x="191.107" y="797.476" width="7.18447" height="7.18447" rx="3.59223" fill="#F1E6FF"/>
<rect x="212.66" width="7.18447" height="7.18447" rx="3.59223" fill="#F1E6FF"/>
<rect x="212.66" y="21.5534" width="7.18447" height="7.18447" rx="3.59223" fill="#F1E6FF"/>
<rect x="212.66" y="43.1068" width="7.18447" height="7.18447" rx="3.59223" fill="#F1E6FF"/>
<rect x="212.66" y="64.6602" width="7.18447" height="7.18447" rx="3.59223" fill="#F1E6FF"/>
<rect x="212.66" y="86.2136" width="7.18447" height="7.18447" rx="3.59223" fill="#F1E6FF"/>
<rect x="212.66" y="107.767" width="7.18447" height="7.18447" rx="3.59223" fill="#F1E6FF"/>
<rect x="212.66" y="129.32" width="7.18447" height="7.18447" rx="3.59223" fill="#F1E6FF"/>
<rect x="212.66" y="150.874" width="7.18447" height="7.18447" rx="3.59223" fill="#F1E6FF"/>
<rect x="212.66" y="172.427" width="7.18447" height="7.18447" rx="3.59223" fill="#F1E6FF"/>
<rect x="212.66" y="193.981" width="7.18447" height="7.18447" rx="3.59223" fill="#F1E6FF"/>
<rect x="212.66" y="215.534" width="7.18447" height="7.18447" rx="3.59223" fill="#F1E6FF"/>
<rect x="212.66" y="237.087" width="7.18447" height="7.18447" rx="3.59223" fill="#F1E6FF"/>
<rect x="212.66" y="258.641" width="7.18447" height="7.18447" rx="3.59223" fill="#F1E6FF"/>
<rect x="212.66" y="280.194" width="7.18447" height="7.18447" rx="3.59223" fill="#F1E6FF"/>
<rect x="212.66" y="301.748" width="7.18447" height="7.18447" rx="3.59223" fill="#F1E6FF"/>
<rect x="212.66" y="323.301" width="7.18447" height="7.18447" rx="3.59223" fill="#F1E6FF"/>
<rect x="212.66" y="344.854" width="7.18447" height="7.18447" rx="3.59223" fill="#F1E6FF"/>
<rect x="212.66" y="366.408" width="7.18447" height="7.18447" rx="3.59223" fill="#F1E6FF"/>
<rect x="212.66" y="387.961" width="7.18447" height="7.18447" rx="3.59223" fill="#F1E6FF"/>
<rect x="212.66" y="409.515" width="7.18447" height="7.18447" rx="3.59223" fill="#F1E6FF"/>
<rect x="212.66" y="431.068" width="7.18447" height="7.18447" rx="3.59223" fill="#F1E6FF"/>
<rect x="212.66" y="452.621" width="7.18447" height="7.18447" rx="3.59223" fill="#F1E6FF"/>
<rect x="212.66" y="474.175" width="7.18447" height="7.18447" rx="3.59223" fill="#F1E6FF"/>
<rect x="212.66" y="495.728" width="7.18447" height="7.18447" rx="3.59223" fill="#F1E6FF"/>
<rect x="212.66" y="517.282" width="7.18447" height="7.18447" rx="3.59223" fill="#F1E6FF"/>
<rect x="212.66" y="538.835" width="7.18447" height="7.18447" rx="3.59223" fill="#F1E6FF"/>
<rect x="212.66" y="560.388" width="7.18447" height="7.18447" rx="3.59223" fill="#F1E6FF"/>
<rect x="212.66" y="581.942" width="7.18447" height="7.18447" rx="3.59223" fill="#F1E6FF"/>
<rect x="212.66" y="603.495" width="7.18447" height="7.18447" rx="3.59223" fill="#F1E6FF"/>
<rect x="212.66" y="625.049" width="7.18447" height="7.18447" rx="3.59223" fill="#F1E6FF"/>
<rect x="212.66" y="646.602" width="7.18447" height="7.18447" rx="3.59223" fill="#F1E6FF"/>
<rect x="212.66" y="668.155" width="7.18447" height="7.18447" rx="3.59223" fill="#F1E6FF"/>
<rect x="212.66" y="689.709" width="7.18447" height="7.18447" rx="3.59223" fill="#F1E6FF"/>
<rect x="212.66" y="711.262" width="7.18447" height="7.18447" rx="3.59223" fill="#F1E6FF"/>
<rect x="212.66" y="732.816" width="7.18447" height="7.18447" rx="3.59223" fill="#F1E6FF"/>
<rect x="212.66" y="754.369" width="7.18447" height="7.18447" rx="3.59223" fill="#F1E6FF"/>
<rect x="212.66" y="775.922" width="7.18447" height="7.18447" rx="3.59223" fill="#F1E6FF"/>
<rect x="212.66" y="797.476" width="7.18447" height="7.18447" rx="3.59223" fill="#F1E6FF"/>
<rect x="212.66" y="819.029" width="7.18447" height="7.18447" rx="3.59223" fill="#F1E6FF"/>
<rect x="212.66" y="840.582" width="7.18447" height="7.18447" rx="3.59223" fill="#F1E6FF"/>
<rect x="234.214" y="21.5534" width="7.18447" height="7.18447" rx="3.59223" fill="#F1E6FF"/>
<rect x="234.214" y="43.1068" width="7.18447" height="7.18447" rx="3.59223" fill="#F1E6FF"/>
<rect x="234.214" y="64.6602" width="7.18447" height="7.18447" rx="3.59223" fill="#F1E6FF"/>
<rect x="234.214" y="86.2136" width="7.18447" height="7.18447" rx="3.59223" fill="#F1E6FF"/>
<rect x="234.214" y="107.767" width="7.18447" height="7.18447" rx="3.59223" fill="#F1E6FF"/>
<rect x="234.214" y="129.32" width="7.18447" height="7.18447" rx="3.59223" fill="#F1E6FF"/>
<rect x="234.214" y="150.874" width="7.18447" height="7.18447" rx="3.59223" fill="#F1E6FF"/>
<rect x="234.214" y="172.427" width="7.18447" height="7.18447" rx="3.59223" fill="#F1E6FF"/>
<rect x="234.214" y="193.981" width="7.18447" height="7.18447" rx="3.59223" fill="#F1E6FF"/>
<rect x="234.214" y="215.534" width="7.18447" height="7.18447" rx="3.59223" fill="#F1E6FF"/>
<rect x="234.214" y="237.087" width="7.18447" height="7.18447" rx="3.59223" fill="#F1E6FF"/>
<rect x="234.214" y="258.641" width="7.18447" height="7.18447" rx="3.59223" fill="#F1E6FF"/>
<rect x="234.214" y="280.194" width="7.18447" height="7.18447" rx="3.59223" fill="#F1E6FF"/>
<rect x="234.214" y="301.748" width="7.18447" height="7.18447" rx="3.59223" fill="#F1E6FF"/>
<rect x="234.214" y="323.301" width="7.18447" height="7.18447" rx="3.59223" fill="#F1E6FF"/>
<rect x="234.214" y="344.854" width="7.18447" height="7.18447" rx="3.59223" fill="#F1E6FF"/>
<rect x="234.214" y="366.408" width="7.18447" height="7.18447" rx="3.59223" fill="#F1E6FF"/>
<rect x="234.214" y="387.961" width="7.18447" height="7.18447" rx="3.59223" fill="#F1E6FF"/>
<rect x="234.214" y="409.515" width="7.18447" height="7.18447" rx="3.59223" fill="#F1E6FF"/>
<rect x="234.214" y="431.068" width="7.18447" height="7.18447" rx="3.59223" fill="#F1E6FF"/>
<rect x="234.214" y="452.621" width="7.18447" height="7.18447" rx="3.59223" fill="#F1E6FF"/>
<rect x="234.214" y="474.175" width="7.18447" height="7.18447" rx="3.59223" fill="#F1E6FF"/>
<rect x="234.214" y="495.728" width="7.18447" height="7.18447" rx="3.59223" fill="#F1E6FF"/>
<rect x="234.214" y="517.282" width="7.18447" height="7.18447" rx="3.59223" fill="#F1E6FF"/>
<rect x="234.214" y="538.835" width="7.18447" height="7.18447" rx="3.59223" fill="#F1E6FF"/>
<rect x="234.214" y="560.388" width="7.18447" height="7.18447" rx="3.59223" fill="#F1E6FF"/>
<rect x="234.214" y="581.942" width="7.18447" height="7.18447" rx="3.59223" fill="#F1E6FF"/>
<rect x="234.214" y="603.495" width="7.18447" height="7.18447" rx="3.59223" fill="#F1E6FF"/>
<rect x="234.214" y="625.049" width="7.18447" height="7.18447" rx="3.59223" fill="#F1E6FF"/>
<rect x="234.214" y="646.602" width="7.18447" height="7.18447" rx="3.59223" fill="#F1E6FF"/>
<rect x="234.214" y="668.155" width="7.18447" height="7.18447" rx="3.59223" fill="#F1E6FF"/>
<rect x="234.214" y="689.709" width="7.18447" height="7.18447" rx="3.59223" fill="#F1E6FF"/>
<rect x="234.214" y="711.262" width="7.18447" height="7.18447" rx="3.59223" fill="#F1E6FF"/>
<rect x="234.214" y="732.816" width="7.18447" height="7.18447" rx="3.59223" fill="#F1E6FF"/>
<rect x="234.214" y="754.369" width="7.18447" height="7.18447" rx="3.59223" fill="#F1E6FF"/>
<rect x="234.214" y="775.922" width="7.18447" height="7.18447" rx="3.59223" fill="#F1E6FF"/>
<rect x="234.214" y="797.476" width="7.18447" height="7.18447" rx="3.59223" fill="#F1E6FF"/>
<rect x="234.214" y="819.029" width="7.18447" height="7.18447" rx="3.59223" fill="#F1E6FF"/>
<rect x="234.214" y="840.582" width="7.18447" height="7.18447" rx="3.59223" fill="#F1E6FF"/>
<rect x="234.214" y="862.136" width="7.18447" height="7.18447" rx="3.59223" fill="#F1E6FF"/>
<rect x="234.214" y="883.689" width="7.18447" height="7.18447" rx="3.59223" fill="#F1E6FF"/>
<rect x="255.767" y="21.5534" width="7.18447" height="7.18447" rx="3.59223" fill="#F1E6FF"/>
<rect x="255.767" y="43.1068" width="7.18447" height="7.18447" rx="3.59223" fill="#F1E6FF"/>
<rect x="255.767" y="64.6602" width="7.18447" height="7.18447" rx="3.59223" fill="#F1E6FF"/>
<rect x="255.767" y="86.2136" width="7.18447" height="7.18447" rx="3.59223" fill="#F1E6FF"/>
<rect x="255.767" y="107.767" width="7.18447" height="7.18447" rx="3.59223" fill="#F1E6FF"/>
<rect x="255.767" y="129.32" width="7.18447" height="7.18447" rx="3.59223" fill="#F1E6FF"/>
<rect x="255.767" y="150.874" width="7.18447" height="7.18447" rx="3.59223" fill="#F1E6FF"/>
<rect x="255.767" y="172.427" width="7.18447" height="7.18447" rx="3.59223" fill="#F1E6FF"/>
<rect x="255.767" y="193.981" width="7.18447" height="7.18447" rx="3.59223" fill="#F1E6FF"/>
<rect x="255.767" y="215.534" width="7.18447" height="7.18447" rx="3.59223" fill="#F1E6FF"/>
<rect x="255.767" y="237.087" width="7.18447" height="7.18447" rx="3.59223" fill="#F1E6FF"/>
<rect x="255.767" y="258.641" width="7.18447" height="7.18447" rx="3.59223" fill="#F1E6FF"/>
<rect x="255.767" y="280.194" width="7.18447" height="7.18447" rx="3.59223" fill="#F1E6FF"/>
<rect x="255.767" y="301.748" width="7.18447" height="7.18447" rx="3.59223" fill="#F1E6FF"/>
<rect x="255.767" y="323.301" width="7.18447" height="7.18447" rx="3.59223" fill="#F1E6FF"/>
<rect x="255.767" y="344.854" width="7.18447" height="7.18447" rx="3.59223" fill="#F1E6FF"/>
<rect x="255.767" y="366.408" width="7.18447" height="7.18447" rx="3.59223" fill="#F1E6FF"/>
<rect x="255.767" y="387.961" width="7.18447" height="7.18447" rx="3.59223" fill="#F1E6FF"/>
<rect x="255.767" y="409.515" width="7.18447" height="7.18447" rx="3.59223" fill="#F1E6FF"/>
<rect x="255.767" y="431.068" width="7.18447" height="7.18447" rx="3.59223" fill="#F1E6FF"/>
<rect x="255.767" y="452.621" width="7.18447" height="7.18447" rx="3.59223" fill="#F1E6FF"/>
<rect x="255.767" y="474.175" width="7.18447" height="7.18447" rx="3.59223" fill="#F1E6FF"/>
<rect x="255.767" y="495.728" width="7.18447" height="7.18447" rx="3.59223" fill="#F1E6FF"/>
<rect x="255.767" y="517.282" width="7.18447" height="7.18447" rx="3.59223" fill="#F1E6FF"/>
<rect x="255.767" y="538.835" width="7.18447" height="7.18447" rx="3.59223" fill="#F1E6FF"/>
<rect x="255.767" y="560.388" width="7.18447" height="7.18447" rx="3.59223" fill="#F1E6FF"/>
<rect x="255.767" y="581.942" width="7.18447" height="7.18447" rx="3.59223" fill="#F1E6FF"/>
<rect x="255.767" y="603.495" width="7.18447" height="7.18447" rx="3.59223" fill="#F1E6FF"/>
<rect x="255.767" y="625.049" width="7.18447" height="7.18447" rx="3.59223" fill="#F1E6FF"/>
<rect x="255.767" y="646.602" width="7.18447" height="7.18447" rx="3.59223" fill="#F1E6FF"/>
<rect x="255.767" y="668.155" width="7.18447" height="7.18447" rx="3.59223" fill="#F1E6FF"/>
<rect x="255.767" y="689.709" width="7.18447" height="7.18447" rx="3.59223" fill="#F1E6FF"/>
<rect x="255.767" y="711.262" width="7.18447" height="7.18447" rx="3.59223" fill="#F1E6FF"/>
<rect x="255.767" y="732.816" width="7.18447" height="7.18447" rx="3.59223" fill="#F1E6FF"/>
<rect x="255.767" y="754.369" width="7.18447" height="7.18447" rx="3.59223" fill="#F1E6FF"/>
<rect x="255.767" y="775.922" width="7.18447" height="7.18447" rx="3.59223" fill="#F1E6FF"/>
<rect x="255.767" y="797.476" width="7.18447" height="7.18447" rx="3.59223" fill="#F1E6FF"/>
<rect x="255.767" y="819.029" width="7.18447" height="7.18447" rx="3.59223" fill="#F1E6FF"/>
<rect x="255.767" y="840.582" width="7.18447" height="7.18447" rx="3.59223" fill="#F1E6FF"/>
<rect x="255.767" y="862.136" width="7.18447" height="7.18447" rx="3.59223" fill="#F1E6FF"/>
<rect x="255.767" y="883.689" width="7.18447" height="7.18447" rx="3.59223" fill="#F1E6FF"/>
<rect x="255.767" y="905.243" width="7.18447" height="7.18447" rx="3.59223" fill="#F1E6FF"/>
<rect x="255.767" y="926.796" width="7.18447" height="7.18447" rx="3.59223" fill="#F1E6FF"/>
<rect x="277.32" y="43.1068" width="7.18447" height="7.18447" rx="3.59223" fill="#F1E6FF"/>
<rect x="277.32" y="64.6602" width="7.18447" height="7.18447" rx="3.59223" fill="#F1E6FF"/>
<rect x="277.32" y="86.2136" width="7.18447" height="7.18447" rx="3.59223" fill="#F1E6FF"/>
<rect x="277.32" y="107.767" width="7.18447" height="7.18447" rx="3.59223" fill="#F1E6FF"/>
<rect x="277.32" y="129.32" width="7.18447" height="7.18447" rx="3.59223" fill="#F1E6FF"/>
<rect x="277.32" y="150.874" width="7.18447" height="7.18447" rx="3.59223" fill="#F1E6FF"/>
<rect x="277.32" y="172.427" width="7.18447" height="7.18447" rx="3.59223" fill="#F1E6FF"/>
<rect x="277.32" y="193.981" width="7.18447" height="7.18447" rx="3.59223" fill="#F1E6FF"/>
<rect x="277.32" y="215.534" width="7.18447" height="7.18447" rx="3.59223" fill="#F1E6FF"/>
<rect x="277.32" y="237.087" width="7.18447" height="7.18447" rx="3.59223" fill="#F1E6FF"/>
<rect x="277.32" y="258.641" width="7.18447" height="7.18447" rx="3.59223" fill="#F1E6FF"/>
<rect x="277.32" y="280.194" width="7.18447" height="7.18447" rx="3.59223" fill="#F1E6FF"/>
<rect x="277.32" y="301.748" width="7.18447" height="7.18447" rx="3.59223" fill="#F1E6FF"/>
<rect x="277.32" y="323.301" width="7.18447" height="7.18447" rx="3.59223" fill="#F1E6FF"/>
<rect x="277.32" y="344.854" width="7.18447" height="7.18447" rx="3.59223" fill="#F1E6FF"/>
<rect x="277.32" y="366.408" width="7.18447" height="7.18447" rx="3.59223" fill="#F1E6FF"/>
<rect x="277.32" y="387.961" width="7.18447" height="7.18447" rx="3.59223" fill="#F1E6FF"/>
<rect x="277.32" y="409.515" width="7.18447" height="7.18447" rx="3.59223" fill="#F1E6FF"/>
<rect x="277.32" y="431.068" width="7.18447" height="7.18447" rx="3.59223" fill="#F1E6FF"/>
<rect x="277.32" y="452.621" width="7.18447" height="7.18447" rx="3.59223" fill="#F1E6FF"/>
<rect x="277.32" y="474.175" width="7.18447" height="7.18447" rx="3.59223" fill="#F1E6FF"/>
<rect x="277.32" y="495.728" width="7.18447" height="7.18447" rx="3.59223" fill="#F1E6FF"/>
<rect x="277.32" y="517.282" width="7.18447" height="7.18447" rx="3.59223" fill="#F1E6FF"/>
<rect x="277.32" y="538.835" width="7.18447" height="7.18447" rx="3.59223" fill="#F1E6FF"/>
<rect x="277.32" y="560.388" width="7.18447" height="7.18447" rx="3.59223" fill="#F1E6FF"/>
<rect x="277.32" y="581.942" width="7.18447" height="7.18447" rx="3.59223" fill="#F1E6FF"/>
<rect x="277.32" y="603.495" width="7.18447" height="7.18447" rx="3.59223" fill="#F1E6FF"/>
<rect x="277.32" y="625.049" width="7.18447" height="7.18447" rx="3.59223" fill="#F1E6FF"/>
<rect x="277.32" y="646.602" width="7.18447" height="7.18447" rx="3.59223" fill="#F1E6FF"/>
<rect x="277.32" y="668.155" width="7.18447" height="7.18447" rx="3.59223" fill="#F1E6FF"/>
<rect x="277.32" y="689.709" width="7.18447" height="7.18447" rx="3.59223" fill="#F1E6FF"/>
<rect x="277.32" y="711.262" width="7.18447" height="7.18447" rx="3.59223" fill="#F1E6FF"/>
<rect x="277.32" y="732.816" width="7.18447" height="7.18447" rx="3.59223" fill="#F1E6FF"/>
<rect x="277.32" y="754.369" width="7.18447" height="7.18447" rx="3.59223" fill="#F1E6FF"/>
<rect x="277.32" y="775.922" width="7.18447" height="7.18447" rx="3.59223" fill="#F1E6FF"/>
<rect x="277.32" y="797.476" width="7.18447" height="7.18447" rx="3.59223" fill="#F1E6FF"/>
<rect x="277.32" y="819.029" width="7.18447" height="7.18447" rx="3.59223" fill="#F1E6FF"/>
<rect x="277.32" y="840.582" width="7.18447" height="7.18447" rx="3.59223" fill="#F1E6FF"/>
<rect x="277.32" y="862.136" width="7.18447" height="7.18447" rx="3.59223" fill="#F1E6FF"/>
<rect x="277.32" y="883.689" width="7.18447" height="7.18447" rx="3.59223" fill="#F1E6FF"/>
<rect x="277.32" y="905.243" width="7.18447" height="7.18447" rx="3.59223" fill="#F1E6FF"/>
<rect x="277.32" y="926.796" width="7.18447" height="7.18447" rx="3.59223" fill="#F1E6FF"/>
<rect x="277.32" y="948.349" width="7.18447" height="7.18447" rx="3.59223" fill="#F1E6FF"/>
<rect x="298.874" y="43.1068" width="7.18447" height="7.18447" rx="3.59223" fill="#F1E6FF"/>
<rect x="298.874" y="64.6602" width="7.18447" height="7.18447" rx="3.59223" fill="#F1E6FF"/>
<rect x="298.874" y="86.2136" width="7.18447" height="7.18447" rx="3.59223" fill="#F1E6FF"/>
<rect x="298.874" y="107.767" width="7.18447" height="7.18447" rx="3.59223" fill="#F1E6FF"/>
<rect x="298.874" y="129.32" width="7.18447" height="7.18447" rx="3.59223" fill="#F1E6FF"/>
<rect x="298.874" y="150.874" width="7.18447" height="7.18447" rx="3.59223" fill="#F1E6FF"/>
<rect x="298.874" y="172.427" width="7.18447" height="7.18447" rx="3.59223" fill="#F1E6FF"/>
<rect x="298.874" y="193.981" width="7.18447" height="7.18447" rx="3.59223" fill="#F1E6FF"/>
<rect x="298.874" y="215.534" width="7.18447" height="7.18447" rx="3.59223" fill="#F1E6FF"/>
<rect x="298.874" y="237.087" width="7.18447" height="7.18447" rx="3.59223" fill="#F1E6FF"/>
<rect x="298.874" y="258.641" width="7.18447" height="7.18447" rx="3.59223" fill="#F1E6FF"/>
<rect x="298.874" y="280.194" width="7.18447" height="7.18447" rx="3.59223" fill="#F1E6FF"/>
<rect x="298.874" y="301.748" width="7.18447" height="7.18447" rx="3.59223" fill="#F1E6FF"/>
<rect x="298.874" y="323.301" width="7.18447" height="7.18447" rx="3.59223" fill="#F1E6FF"/>
<rect x="298.874" y="344.854" width="7.18447" height="7.18447" rx="3.59223" fill="#F1E6FF"/>
<rect x="298.874" y="366.408" width="7.18447" height="7.18447" rx="3.59223" fill="#F1E6FF"/>
<rect x="298.874" y="387.961" width="7.18447" height="7.18447" rx="3.59223" fill="#F1E6FF"/>
<rect x="298.874" y="409.515" width="7.18447" height="7.18447" rx="3.59223" fill="#F1E6FF"/>
<rect x="298.874" y="431.068" width="7.18447" height="7.18447" rx="3.59223" fill="#F1E6FF"/>
<rect x="298.874" y="452.621" width="7.18447" height="7.18447" rx="3.59223" fill="#F1E6FF"/>
<rect x="298.874" y="474.175" width="7.18447" height="7.18447" rx="3.59223" fill="#F1E6FF"/>
<rect x="298.874" y="495.728" width="7.18447" height="7.18447" rx="3.59223" fill="#F1E6FF"/>
<rect x="298.874" y="517.282" width="7.18447" height="7.18447" rx="3.59223" fill="#F1E6FF"/>
<rect x="298.874" y="538.835" width="7.18447" height="7.18447" rx="3.59223" fill="#F1E6FF"/>
<rect x="298.874" y="560.388" width="7.18447" height="7.18447" rx="3.59223" fill="#F1E6FF"/>
<rect x="298.874" y="581.942" width="7.18447" height="7.18447" rx="3.59223" fill="#F1E6FF"/>
<rect x="298.874" y="603.495" width="7.18447" height="7.18447" rx="3.59223" fill="#F1E6FF"/>
<rect x="298.874" y="625.049" width="7.18447" height="7.18447" rx="3.59223" fill="#F1E6FF"/>
<rect x="298.874" y="646.602" width="7.18447" height="7.18447" rx="3.59223" fill="#F1E6FF"/>
<rect x="298.874" y="668.155" width="7.18447" height="7.18447" rx="3.59223" fill="#F1E6FF"/>
<rect x="298.874" y="689.709" width="7.18447" height="7.18447" rx="3.59223" fill="#F1E6FF"/>
<rect x="298.874" y="711.262" width="7.18447" height="7.18447" rx="3.59223" fill="#F1E6FF"/>
<rect x="298.874" y="732.816" width="7.18447" height="7.18447" rx="3.59223" fill="#F1E6FF"/>
<rect x="298.874" y="754.369" width="7.18447" height="7.18447" rx="3.59223" fill="#F1E6FF"/>
<rect x="298.874" y="775.922" width="7.18447" height="7.18447" rx="3.59223" fill="#F1E6FF"/>
<rect x="298.874" y="797.476" width="7.18447" height="7.18447" rx="3.59223" fill="#F1E6FF"/>
<rect x="298.874" y="819.029" width="7.18447" height="7.18447" rx="3.59223" fill="#F1E6FF"/>
<rect x="298.874" y="840.582" width="7.18447" height="7.18447" rx="3.59223" fill="#F1E6FF"/>
<rect x="298.874" y="862.136" width="7.18447" height="7.18447" rx="3.59223" fill="#F1E6FF"/>
<rect x="298.874" y="883.689" width="7.18447" height="7.18447" rx="3.59223" fill="#F1E6FF"/>
<rect x="298.874" y="905.243" width="7.18447" height="7.18447" rx="3.59223" fill="#F1E6FF"/>
<rect x="298.874" y="926.796" width="7.18447" height="7.18447" rx="3.59223" fill="#F1E6FF"/>
<rect x="320.427" y="43.1068" width="7.18447" height="7.18447" rx="3.59223" fill="#F1E6FF"/>
<rect x="320.427" y="64.6602" width="7.18447" height="7.18447" rx="3.59223" fill="#F1E6FF"/>
<rect x="320.427" y="86.2136" width="7.18447" height="7.18447" rx="3.59223" fill="#F1E6FF"/>
<rect x="320.427" y="107.767" width="7.18447" height="7.18447" rx="3.59223" fill="#F1E6FF"/>
<rect x="320.427" y="129.32" width="7.18447" height="7.18447" rx="3.59223" fill="#F1E6FF"/>
<rect x="320.427" y="150.874" width="7.18447" height="7.18447" rx="3.59223" fill="#F1E6FF"/>
<rect x="320.427" y="172.427" width="7.18447" height="7.18447" rx="3.59223" fill="#F1E6FF"/>
<rect x="320.427" y="193.981" width="7.18447" height="7.18447" rx="3.59223" fill="#F1E6FF"/>
<rect x="320.427" y="215.534" width="7.18447" height="7.18447" rx="3.59223" fill="#F1E6FF"/>
<rect x="320.427" y="237.087" width="7.18447" height="7.18447" rx="3.59223" fill="#F1E6FF"/>
<rect x="320.427" y="258.641" width="7.18447" height="7.18447" rx="3.59223" fill="#F1E6FF"/>
<rect x="320.427" y="280.194" width="7.18447" height="7.18447" rx="3.59223" fill="#F1E6FF"/>
<rect x="320.427" y="301.748" width="7.18447" height="7.18447" rx="3.59223" fill="#F1E6FF"/>
<rect x="320.427" y="323.301" width="7.18447" height="7.18447" rx="3.59223" fill="#F1E6FF"/>
<rect x="320.427" y="344.854" width="7.18447" height="7.18447" rx="3.59223" fill="#F1E6FF"/>
<rect x="320.427" y="366.408" width="7.18447" height="7.18447" rx="3.59223" fill="#F1E6FF"/>
<rect x="320.427" y="387.961" width="7.18447" height="7.18447" rx="3.59223" fill="#F1E6FF"/>
<rect x="320.427" y="409.515" width="7.18447" height="7.18447" rx="3.59223" fill="#F1E6FF"/>
<rect x="320.427" y="431.068" width="7.18447" height="7.18447" rx="3.59223" fill="#F1E6FF"/>
<rect x="320.427" y="452.621" width="7.18447" height="7.18447" rx="3.59223" fill="#F1E6FF"/>
<rect x="320.427" y="474.175" width="7.18447" height="7.18447" rx="3.59223" fill="#F1E6FF"/>
<rect x="320.427" y="495.728" width="7.18447" height="7.18447" rx="3.59223" fill="#F1E6FF"/>
<rect x="320.427" y="517.282" width="7.18447" height="7.18447" rx="3.59223" fill="#F1E6FF"/>
<rect x="320.427" y="538.835" width="7.18447" height="7.18447" rx="3.59223" fill="#F1E6FF"/>
<rect x="320.427" y="560.388" width="7.18447" height="7.18447" rx="3.59223" fill="#F1E6FF"/>
<rect x="320.427" y="581.942" width="7.18447" height="7.18447" rx="3.59223" fill="#F1E6FF"/>
<rect x="320.427" y="603.495" width="7.18447" height="7.18447" rx="3.59223" fill="#F1E6FF"/>
<rect x="320.427" y="625.049" width="7.18447" height="7.18447" rx="3.59223" fill="#F1E6FF"/>
<rect x="320.427" y="646.602" width="7.18447" height="7.18447" rx="3.59223" fill="#F1E6FF"/>
<rect x="320.427" y="668.155" width="7.18447" height="7.18447" rx="3.59223" fill="#F1E6FF"/>
<rect x="320.427" y="689.709" width="7.18447" height="7.18447" rx="3.59223" fill="#F1E6FF"/>
<rect x="320.427" y="711.262" width="7.18447" height="7.18447" rx="3.59223" fill="#F1E6FF"/>
<rect x="320.427" y="732.816" width="7.18447" height="7.18447" rx="3.59223" fill="#F1E6FF"/>
<rect x="320.427" y="754.369" width="7.18447" height="7.18447" rx="3.59223" fill="#F1E6FF"/>
<rect x="320.427" y="775.922" width="7.18447" height="7.18447" rx="3.59223" fill="#F1E6FF"/>
<rect x="320.427" y="797.476" width="7.18447" height="7.18447" rx="3.59223" fill="#F1E6FF"/>
<rect x="320.427" y="819.029" width="7.18447" height="7.18447" rx="3.59223" fill="#F1E6FF"/>
<rect x="320.427" y="840.582" width="7.18447" height="7.18447" rx="3.59223" fill="#F1E6FF"/>
<rect x="320.427" y="862.136" width="7.18447" height="7.18447" rx="3.59223" fill="#F1E6FF"/>
<rect x="320.427" y="883.689" width="7.18447" height="7.18447" rx="3.59223" fill="#F1E6FF"/>
<rect x="320.427" y="905.243" width="7.18447" height="7.18447" rx="3.59223" fill="#F1E6FF"/>
<rect x="341.981" y="43.1068" width="7.18447" height="7.18447" rx="3.59223" fill="#F1E6FF"/>
<rect x="341.981" y="64.6602" width="7.18447" height="7.18447" rx="3.59223" fill="#F1E6FF"/>
<rect x="341.981" y="86.2136" width="7.18447" height="7.18447" rx="3.59223" fill="#F1E6FF"/>
<rect x="341.981" y="107.767" width="7.18447" height="7.18447" rx="3.59223" fill="#F1E6FF"/>
<rect x="341.981" y="129.32" width="7.18447" height="7.18447" rx="3.59223" fill="#F1E6FF"/>
<rect x="341.981" y="150.874" width="7.18447" height="7.18447" rx="3.59223" fill="#F1E6FF"/>
<rect x="341.981" y="215.534" width="7.18447" height="7.18447" rx="3.59223" fill="#F1E6FF"/>
<rect x="341.981" y="237.087" width="7.18447" height="7.18447" rx="3.59223" fill="#F1E6FF"/>
<rect x="341.981" y="258.641" width="7.18447" height="7.18447" rx="3.59223" fill="#F1E6FF"/>
<rect x="341.981" y="280.194" width="7.18447" height="7.18447" rx="3.59223" fill="#F1E6FF"/>
<rect x="341.981" y="301.748" width="7.18447" height="7.18447" rx="3.59223" fill="#F1E6FF"/>
<rect x="341.981" y="323.301" width="7.18447" height="7.18447" rx="3.59223" fill="#F1E6FF"/>
<rect x="341.981" y="344.854" width="7.18447" height="7.18447" rx="3.59223" fill="#F1E6FF"/>
<rect x="341.981" y="366.408" width="7.18447" height="7.18447" rx="3.59223" fill="#F1E6FF"/>
<rect x="341.981" y="387.961" width="7.18447" height="7.18447" rx="3.59223" fill="#F1E6FF"/>
<rect x="341.981" y="409.515" width="7.18447" height="7.18447" rx="3.59223" fill="#F1E6FF"/>
<rect x="341.981" y="431.068" width="7.18447" height="7.18447" rx="3.59223" fill="#F1E6FF"/>
<rect x="341.981" y="452.621" width="7.18447" height="7.18447" rx="3.59223" fill="#F1E6FF"/>
<rect x="341.981" y="474.175" width="7.18447" height="7.18447" rx="3.59223" fill="#F1E6FF"/>
<rect x="341.981" y="495.728" width="7.18447" height="7.18447" rx="3.59223" fill="#F1E6FF"/>
<rect x="341.981" y="517.282" width="7.18447" height="7.18447" rx="3.59223" fill="#F1E6FF"/>
<rect x="341.981" y="538.835" width="7.18447" height="7.18447" rx="3.59223" fill="#F1E6FF"/>
<rect x="341.981" y="560.388" width="7.18447" height="7.18447" rx="3.59223" fill="#F1E6FF"/>
<rect x="341.981" y="581.942" width="7.18447" height="7.18447" rx="3.59223" fill="#F1E6FF"/>
<rect x="341.981" y="603.495" width="7.18447" height="7.18447" rx="3.59223" fill="#F1E6FF"/>
<rect x="341.981" y="625.049" width="7.18447" height="7.18447" rx="3.59223" fill="#F1E6FF"/>
<rect x="341.981" y="646.602" width="7.18447" height="7.18447" rx="3.59223" fill="#F1E6FF"/>
<rect x="341.981" y="668.155" width="7.18447" height="7.18447" rx="3.59223" fill="#F1E6FF"/>
<rect x="341.981" y="689.709" width="7.18447" height="7.18447" rx="3.59223" fill="#F1E6FF"/>
<rect x="341.981" y="711.262" width="7.18447" height="7.18447" rx="3.59223" fill="#F1E6FF"/>
<rect x="341.981" y="732.816" width="7.18447" height="7.18447" rx="3.59223" fill="#F1E6FF"/>
<rect x="341.981" y="754.369" width="7.18447" height="7.18447" rx="3.59223" fill="#F1E6FF"/>
<rect x="341.981" y="775.922" width="7.18447" height="7.18447" rx="3.59223" fill="#F1E6FF"/>
<rect x="341.981" y="797.476" width="7.18447" height="7.18447" rx="3.59223" fill="#F1E6FF"/>
<rect x="341.981" y="819.029" width="7.18447" height="7.18447" rx="3.59223" fill="#F1E6FF"/>
<rect x="341.981" y="840.582" width="7.18447" height="7.18447" rx="3.59223" fill="#F1E6FF"/>
<rect x="341.981" y="862.136" width="7.18447" height="7.18447" rx="3.59223" fill="#F1E6FF"/>
<rect x="341.981" y="883.689" width="7.18447" height="7.18447" rx="3.59223" fill="#F1E6FF"/>
<rect x="363.534" y="43.1068" width="7.18447" height="7.18447" rx="3.59223" fill="#F1E6FF"/>
<rect x="363.534" y="64.6602" width="7.18447" height="7.18447" rx="3.59223" fill="#F1E6FF"/>
<rect x="363.534" y="86.2136" width="7.18447" height="7.18447" rx="3.59223" fill="#F1E6FF"/>
<rect x="363.534" y="215.534" width="7.18447" height="7.18447" rx="3.59223" fill="#F1E6FF"/>
<rect x="363.534" y="237.087" width="7.18447" height="7.18447" rx="3.59223" fill="#F1E6FF"/>
<rect x="363.534" y="258.641" width="7.18447" height="7.18447" rx="3.59223" fill="#F1E6FF"/>
<rect x="363.534" y="280.194" width="7.18447" height="7.18447" rx="3.59223" fill="#F1E6FF"/>
<rect x="363.534" y="301.748" width="7.18447" height="7.18447" rx="3.59223" fill="#F1E6FF"/>
<rect x="363.534" y="323.301" width="7.18447" height="7.18447" rx="3.59223" fill="#F1E6FF"/>
<rect x="363.534" y="344.854" width="7.18447" height="7.18447" rx="3.59223" fill="#F1E6FF"/>
<rect x="363.534" y="366.408" width="7.18447" height="7.18447" rx="3.59223" fill="#F1E6FF"/>
<rect x="363.534" y="387.961" width="7.18447" height="7.18447" rx="3.59223" fill="#F1E6FF"/>
<rect x="363.534" y="409.515" width="7.18447" height="7.18447" rx="3.59223" fill="#F1E6FF"/>
<rect x="363.534" y="431.068" width="7.18447" height="7.18447" rx="3.59223" fill="#F1E6FF"/>
<rect x="363.534" y="452.621" width="7.18447" height="7.18447" rx="3.59223" fill="#F1E6FF"/>
<rect x="363.534" y="474.175" width="7.18447" height="7.18447" rx="3.59223" fill="#F1E6FF"/>
<rect x="363.534" y="495.728" width="7.18447" height="7.18447" rx="3.59223" fill="#F1E6FF"/>
<rect x="363.534" y="517.282" width="7.18447" height="7.18447" rx="3.59223" fill="#F1E6FF"/>
<rect x="363.534" y="538.835" width="7.18447" height="7.18447" rx="3.59223" fill="#F1E6FF"/>
<rect x="363.534" y="560.388" width="7.18447" height="7.18447" rx="3.59223" fill="#F1E6FF"/>
<rect x="363.534" y="581.942" width="7.18447" height="7.18447" rx="3.59223" fill="#F1E6FF"/>
<rect x="363.534" y="603.495" width="7.18447" height="7.18447" rx="3.59223" fill="#F1E6FF"/>
<rect x="363.534" y="625.049" width="7.18447" height="7.18447" rx="3.59223" fill="#F1E6FF"/>
<rect x="363.534" y="646.602" width="7.18447" height="7.18447" rx="3.59223" fill="#F1E6FF"/>
<rect x="363.534" y="668.155" width="7.18447" height="7.18447" rx="3.59223" fill="#F1E6FF"/>
<rect x="363.534" y="689.709" width="7.18447" height="7.18447" rx="3.59223" fill="#F1E6FF"/>
<rect x="363.534" y="711.262" width="7.18447" height="7.18447" rx="3.59223" fill="#F1E6FF"/>
<rect x="363.534" y="732.816" width="7.18447" height="7.18447" rx="3.59223" fill="#F1E6FF"/>
<rect x="363.534" y="754.369" width="7.18447" height="7.18447" rx="3.59223" fill="#F1E6FF"/>
<rect x="363.534" y="775.922" width="7.18447" height="7.18447" rx="3.59223" fill="#F1E6FF"/>
<rect x="363.534" y="797.476" width="7.18447" height="7.18447" rx="3.59223" fill="#F1E6FF"/>
<rect x="363.534" y="819.029" width="7.18447" height="7.18447" rx="3.59223" fill="#F1E6FF"/>
<rect x="385.087" y="237.087" width="7.18447" height="7.18447" rx="3.59223" fill="#F1E6FF"/>
<rect x="385.087" y="301.748" width="7.18447" height="7.18447" rx="3.59223" fill="#F1E6FF"/>
<rect x="385.087" y="323.301" width="7.18447" height="7.18447" rx="3.59223" fill="#F1E6FF"/>
<rect x="385.087" y="344.854" width="7.18447" height="7.18447" rx="3.59223" fill="#F1E6FF"/>
<rect x="385.087" y="366.408" width="7.18447" height="7.18447" rx="3.59223" fill="#F1E6FF"/>
<rect x="385.087" y="387.961" width="7.18447" height="7.18447" rx="3.59223" fill="#F1E6FF"/>
<rect x="385.087" y="409.515" width="7.18447" height="7.18447" rx="3.59223" fill="#F1E6FF"/>
<rect x="385.087" y="431.068" width="7.18447" height="7.18447" rx="3.59223" fill="#F1E6FF"/>
<rect x="385.087" y="452.621" width="7.18447" height="7.18447" rx="3.59223" fill="#F1E6FF"/>
<rect x="385.087" y="474.175" width="7.18447" height="7.18447" rx="3.59223" fill="#F1E6FF"/>
<rect x="385.087" y="495.728" width="7.18447" height="7.18447" rx="3.59223" fill="#F1E6FF"/>
<rect x="385.087" y="517.282" width="7.18447" height="7.18447" rx="3.59223" fill="#F1E6FF"/>
<rect x="385.087" y="538.835" width="7.18447" height="7.18447" rx="3.59223" fill="#F1E6FF"/>
<rect x="385.087" y="560.388" width="7.18447" height="7.18447" rx="3.59223" fill="#F1E6FF"/>
<rect x="385.087" y="581.942" width="7.18447" height="7.18447" rx="3.59223" fill="#F1E6FF"/>
<rect x="385.087" y="603.495" width="7.18447" height="7.18447" rx="3.59223" fill="#F1E6FF"/>
<rect x="385.087" y="625.049" width="7.18447" height="7.18447" rx="3.59223" fill="#F1E6FF"/>
<rect x="385.087" y="646.602" width="7.18447" height="7.18447" rx="3.59223" fill="#F1E6FF"/>
<rect x="385.087" y="668.155" width="7.18447" height="7.18447" rx="3.59223" fill="#F1E6FF"/>
<rect x="385.087" y="689.709" width="7.18447" height="7.18447" rx="3.59223" fill="#F1E6FF"/>
<rect x="385.087" y="711.262" width="7.18447" height="7.18447" rx="3.59223" fill="#F1E6FF"/>
<rect x="406.641" y="323.301" width="7.18447" height="7.18447" rx="3.59223" fill="#F1E6FF"/>
<rect x="406.641" y="344.854" width="7.18447" height="7.18447" rx="3.59223" fill="#F1E6FF"/>
<rect x="406.641" y="366.408" width="7.18447" height="7.18447" rx="3.59223" fill="#F1E6FF"/>
<rect x="406.641" y="387.961" width="7.18447" height="7.18447" rx="3.59223" fill="#F1E6FF"/>
<rect x="406.641" y="409.515" width="7.18447" height="7.18447" rx="3.59223" fill="#F1E6FF"/>
<rect x="406.641" y="431.068" width="7.18447" height="7.18447" rx="3.59223" fill="#F1E6FF"/>
<rect x="406.641" y="452.621" width="7.18447" height="7.18447" rx="3.59223" fill="#F1E6FF"/>
<rect x="406.641" y="474.175" width="7.18447" height="7.18447" rx="3.59223" fill="#F1E6FF"/>
<rect x="406.641" y="495.728" width="7.18447" height="7.18447" rx="3.59223" fill="#F1E6FF"/>
<rect x="406.641" y="517.282" width="7.18447" height="7.18447" rx="3.59223" fill="#F1E6FF"/>
<rect x="406.641" y="538.835" width="7.18447" height="7.18447" rx="3.59223" fill="#F1E6FF"/>
<rect x="406.641" y="560.388" width="7.18447" height="7.18447" rx="3.59223" fill="#F1E6FF"/>
<rect x="406.641" y="581.942" width="7.18447" height="7.18447" rx="3.59223" fill="#F1E6FF"/>
<rect x="406.641" y="603.495" width="7.18447" height="7.18447" rx="3.59223" fill="#F1E6FF"/>
<rect x="406.641" y="625.049" width="7.18447" height="7.18447" rx="3.59223" fill="#F1E6FF"/>
<rect x="406.641" y="646.602" width="7.18447" height="7.18447" rx="3.59223" fill="#F1E6FF"/>
<rect x="406.641" y="668.155" width="7.18447" height="7.18447" rx="3.59223" fill="#F1E6FF"/>
<rect x="406.641" y="689.709" width="7.18447" height="7.18447" rx="3.59223" fill="#F1E6FF"/>
<rect x="428.194" y="323.301" width="7.18447" height="7.18447" rx="3.59223" fill="#F1E6FF"/>
<rect x="428.194" y="344.854" width="7.18447" height="7.18447" rx="3.59223" fill="#F1E6FF"/>
<rect x="428.194" y="366.408" width="7.18447" height="7.18447" rx="3.59223" fill="#F1E6FF"/>
<rect x="428.194" y="387.961" width="7.18447" height="7.18447" rx="3.59223" fill="#F1E6FF"/>
<rect x="428.194" y="409.515" width="7.18447" height="7.18447" rx="3.59223" fill="#F1E6FF"/>
<rect x="428.194" y="431.068" width="7.18447" height="7.18447" rx="3.59223" fill="#F1E6FF"/>
<rect x="428.194" y="452.621" width="7.18447" height="7.18447" rx="3.59223" fill="#F1E6FF"/>
<rect x="428.194" y="474.175" width="7.18447" height="7.18447" rx="3.59223" fill="#F1E6FF"/>
<rect x="428.194" y="495.728" width="7.18447" height="7.18447" rx="3.59223" fill="#F1E6FF"/>
<rect x="428.194" y="517.282" width="7.18447" height="7.18447" rx="3.59223" fill="#F1E6FF"/>
<rect x="428.194" y="538.835" width="7.18447" height="7.18447" rx="3.59223" fill="#F1E6FF"/>
<rect x="428.194" y="560.388" width="7.18447" height="7.18447" rx="3.59223" fill="#F1E6FF"/>
<rect x="428.194" y="581.942" width="7.18447" height="7.18447" rx="3.59223" fill="#F1E6FF"/>
<rect x="428.194" y="603.495" width="7.18447" height="7.18447" rx="3.59223" fill="#F1E6FF"/>
<rect x="428.194" y="625.049" width="7.18447" height="7.18447" rx="3.59223" fill="#F1E6FF"/>
<rect x="428.194" y="646.602" width="7.18447" height="7.18447" rx="3.59223" fill="#F1E6FF"/>
<rect x="428.194" y="668.155" width="7.18447" height="7.18447" rx="3.59223" fill="#F1E6FF"/>
<rect x="428.194" y="689.709" width="7.18447" height="7.18447" rx="3.59223" fill="#F1E6FF"/>
<rect x="449.747" y="323.301" width="7.18447" height="7.18447" rx="3.59223" fill="#F1E6FF"/>
<rect x="449.747" y="344.854" width="7.18447" height="7.18447" rx="3.59223" fill="#F1E6FF"/>
<rect x="449.747" y="366.408" width="7.18447" height="7.18447" rx="3.59223" fill="#F1E6FF"/>
<rect x="449.747" y="387.961" width="7.18447" height="7.18447" rx="3.59223" fill="#F1E6FF"/>
<rect x="449.747" y="409.515" width="7.18447" height="7.18447" rx="3.59223" fill="#F1E6FF"/>
<rect x="449.747" y="431.068" width="7.18447" height="7.18447" rx="3.59223" fill="#F1E6FF"/>
<rect x="449.747" y="452.621" width="7.18447" height="7.18447" rx="3.59223" fill="#F1E6FF"/>
<rect x="449.747" y="474.175" width="7.18447" height="7.18447" rx="3.59223" fill="#F1E6FF"/>
<rect x="449.747" y="495.728" width="7.18447" height="7.18447" rx="3.59223" fill="#F1E6FF"/>
<rect x="449.747" y="517.282" width="7.18447" height="7.18447" rx="3.59223" fill="#F1E6FF"/>
<rect x="449.747" y="538.835" width="7.18447" height="7.18447" rx="3.59223" fill="#F1E6FF"/>
<rect x="449.747" y="560.388" width="7.18447" height="7.18447" rx="3.59223" fill="#F1E6FF"/>
<rect x="449.747" y="581.942" width="7.18447" height="7.18447" rx="3.59223" fill="#F1E6FF"/>
<rect x="449.747" y="603.495" width="7.18447" height="7.18447" rx="3.59223" fill="#F1E6FF"/>
<rect x="449.747" y="625.049" width="7.18447" height="7.18447" rx="3.59223" fill="#F1E6FF"/>
<rect x="449.747" y="646.602" width="7.18447" height="7.18447" rx="3.59223" fill="#F1E6FF"/>
<rect x="449.747" y="668.155" width="7.18447" height="7.18447" rx="3.59223" fill="#F1E6FF"/>
<rect x="471.301" y="344.854" width="7.18447" height="7.18447" rx="3.59223" fill="#F1E6FF"/>
<rect x="471.301" y="366.408" width="7.18447" height="7.18447" rx="3.59223" fill="#F1E6FF"/>
<rect x="471.301" y="387.961" width="7.18447" height="7.18447" rx="3.59223" fill="#F1E6FF"/>
<rect x="471.301" y="409.515" width="7.18447" height="7.18447" rx="3.59223" fill="#F1E6FF"/>
<rect x="471.301" y="431.068" width="7.18447" height="7.18447" rx="3.59223" fill="#F1E6FF"/>
<rect x="471.301" y="452.621" width="7.18447" height="7.18447" rx="3.59223" fill="#F1E6FF"/>
<rect x="471.301" y="474.175" width="7.18447" height="7.18447" rx="3.59223" fill="#F1E6FF"/>
<rect x="471.301" y="495.728" width="7.18447" height="7.18447" rx="3.59223" fill="#F1E6FF"/>
<rect x="471.301" y="517.282" width="7.18447" height="7.18447" rx="3.59223" fill="#F1E6FF"/>
<rect x="471.301" y="538.835" width="7.18447" height="7.18447" rx="3.59223" fill="#F1E6FF"/>
<rect x="471.301" y="560.388" width="7.18447" height="7.18447" rx="3.59223" fill="#F1E6FF"/>
<rect x="471.301" y="581.942" width="7.18447" height="7.18447" rx="3.59223" fill="#F1E6FF"/>
<rect x="471.301" y="603.495" width="7.18447" height="7.18447" rx="3.59223" fill="#F1E6FF"/>
<rect x="471.301" y="625.049" width="7.18447" height="7.18447" rx="3.59223" fill="#F1E6FF"/>
<rect x="471.301" y="646.602" width="7.18447" height="7.18447" rx="3.59223" fill="#F1E6FF"/>
<rect x="492.854" y="344.854" width="7.18447" height="7.18447" rx="3.59223" fill="#F1E6FF"/>
<rect x="492.854" y="366.408" width="7.18447" height="7.18447" rx="3.59223" fill="#F1E6FF"/>
<rect x="492.854" y="387.961" width="7.18447" height="7.18447" rx="3.59223" fill="#F1E6FF"/>
<rect x="492.854" y="409.515" width="7.18447" height="7.18447" rx="3.59223" fill="#F1E6FF"/>
<rect x="492.854" y="431.068" width="7.18447" height="7.18447" rx="3.59223" fill="#F1E6FF"/>
<rect x="492.854" y="452.621" width="7.18447" height="7.18447" rx="3.59223" fill="#F1E6FF"/>
<rect x="492.854" y="474.175" width="7.18447" height="7.18447" rx="3.59223" fill="#F1E6FF"/>
<rect x="492.854" y="495.728" width="7.18447" height="7.18447" rx="3.59223" fill="#F1E6FF"/>
<rect x="492.854" y="517.282" width="7.18447" height="7.18447" rx="3.59223" fill="#F1E6FF"/>
<rect x="492.854" y="538.835" width="7.18447" height="7.18447" rx="3.59223" fill="#F1E6FF"/>
<rect x="492.854" y="560.388" width="7.18447" height="7.18447" rx="3.59223" fill="#F1E6FF"/>
<rect x="492.854" y="581.942" width="7.18447" height="7.18447" rx="3.59223" fill="#F1E6FF"/>
<rect x="492.854" y="603.495" width="7.18447" height="7.18447" rx="3.59223" fill="#F1E6FF"/>
<rect x="492.854" y="625.049" width="7.18447" height="7.18447" rx="3.59223" fill="#F1E6FF"/>
<rect x="514.407" y="366.408" width="7.18447" height="7.18447" rx="3.59223" fill="#F1E6FF"/>
<rect x="514.407" y="387.961" width="7.18447" height="7.18447" rx="3.59223" fill="#F1E6FF"/>
<rect x="514.407" y="409.515" width="7.18447" height="7.18447" rx="3.59223" fill="#F1E6FF"/>
<rect x="514.407" y="431.068" width="7.18447" height="7.18447" rx="3.59223" fill="#F1E6FF"/>
<rect x="514.407" y="452.621" width="7.18447" height="7.18447" rx="3.59223" fill="#F1E6FF"/>
<rect x="514.407" y="474.175" width="7.18447" height="7.18447" rx="3.59223" fill="#F1E6FF"/>
<rect x="514.407" y="495.728" width="7.18447" height="7.18447" rx="3.59223" fill="#F1E6FF"/>
<rect x="514.407" y="517.282" width="7.18447" height="7.18447" rx="3.59223" fill="#F1E6FF"/>
<rect x="514.407" y="538.835" width="7.18447" height="7.18447" rx="3.59223" fill="#F1E6FF"/>
<rect x="514.407" y="560.388" width="7.18447" height="7.18447" rx="3.59223" fill="#F1E6FF"/>
<rect x="514.407" y="581.942" width="7.18447" height="7.18447" rx="3.59223" fill="#F1E6FF"/>
<rect x="514.407" y="603.495" width="7.18447" height="7.18447" rx="3.59223" fill="#F1E6FF"/>
<rect x="514.407" y="625.049" width="7.18447" height="7.18447" rx="3.59223" fill="#F1E6FF"/>
<rect x="535.961" y="366.408" width="7.18447" height="7.18447" rx="3.59223" fill="#F1E6FF"/>
<rect x="535.961" y="387.961" width="7.18447" height="7.18447" rx="3.59223" fill="#F1E6FF"/>
<rect x="535.961" y="409.515" width="7.18447" height="7.18447" rx="3.59223" fill="#F1E6FF"/>
<rect x="535.961" y="431.068" width="7.18447" height="7.18447" rx="3.59223" fill="#F1E6FF"/>
<rect x="535.961" y="452.621" width="7.18447" height="7.18447" rx="3.59223" fill="#F1E6FF"/>
<rect x="535.961" y="474.175" width="7.18447" height="7.18447" rx="3.59223" fill="#F1E6FF"/>
<rect x="535.961" y="495.728" width="7.18447" height="7.18447" rx="3.59223" fill="#F1E6FF"/>
<rect x="535.961" y="517.282" width="7.18447" height="7.18447" rx="3.59223" fill="#F1E6FF"/>
<rect x="535.961" y="538.835" width="7.18447" height="7.18447" rx="3.59223" fill="#F1E6FF"/>
<rect x="535.961" y="560.388" width="7.18447" height="7.18447" rx="3.59223" fill="#F1E6FF"/>
<rect x="535.961" y="581.942" width="7.18447" height="7.18447" rx="3.59223" fill="#F1E6FF"/>
<rect x="535.961" y="603.495" width="7.18447" height="7.18447" rx="3.59223" fill="#F1E6FF"/>
<rect x="535.961" y="625.049" width="7.18447" height="7.18447" rx="3.59223" fill="#F1E6FF"/>
<rect x="557.515" y="366.408" width="7.18447" height="7.18447" rx="3.59223" fill="#F1E6FF"/>
<rect x="557.515" y="387.961" width="7.18447" height="7.18447" rx="3.59223" fill="#F1E6FF"/>
<rect x="557.515" y="409.515" width="7.18447" height="7.18447" rx="3.59223" fill="#F1E6FF"/>
<rect x="557.515" y="431.068" width="7.18447" height="7.18447" rx="3.59223" fill="#F1E6FF"/>
<rect x="557.515" y="452.621" width="7.18447" height="7.18447" rx="3.59223" fill="#F1E6FF"/>
<rect x="557.515" y="474.175" width="7.18447" height="7.18447" rx="3.59223" fill="#F1E6FF"/>
<rect x="557.515" y="495.728" width="7.18447" height="7.18447" rx="3.59223" fill="#F1E6FF"/>
<rect x="557.515" y="517.282" width="7.18447" height="7.18447" rx="3.59223" fill="#F1E6FF"/>
<rect x="557.515" y="538.835" width="7.18447" height="7.18447" rx="3.59223" fill="#F1E6FF"/>
<rect x="557.515" y="560.388" width="7.18447" height="7.18447" rx="3.59223" fill="#F1E6FF"/>
<rect x="557.515" y="581.942" width="7.18447" height="7.18447" rx="3.59223" fill="#F1E6FF"/>
<rect x="557.515" y="603.495" width="7.18447" height="7.18447" rx="3.59223" fill="#F1E6FF"/>
<rect x="557.515" y="625.049" width="7.18447" height="7.18447" rx="3.59223" fill="#F1E6FF"/>
<rect x="579.068" y="366.408" width="7.18447" height="7.18447" rx="3.59223" fill="#F1E6FF"/>
<rect x="579.068" y="387.961" width="7.18447" height="7.18447" rx="3.59223" fill="#F1E6FF"/>
<rect x="579.068" y="409.515" width="7.18447" height="7.18447" rx="3.59223" fill="#F1E6FF"/>
<rect x="579.068" y="431.068" width="7.18447" height="7.18447" rx="3.59223" fill="#F1E6FF"/>
<rect x="579.068" y="452.621" width="7.18447" height="7.18447" rx="3.59223" fill="#F1E6FF"/>
<rect x="579.068" y="474.175" width="7.18447" height="7.18447" rx="3.59223" fill="#F1E6FF"/>
<rect x="579.068" y="495.728" width="7.18447" height="7.18447" rx="3.59223" fill="#F1E6FF"/>
<rect x="579.068" y="517.282" width="7.18447" height="7.18447" rx="3.59223" fill="#F1E6FF"/>
<rect x="600.621" y="323.301" width="7.18447" height="7.18447" rx="3.59223" fill="#F1E6FF"/>
<rect x="600.621" y="344.854" width="7.18447" height="7.18447" rx="3.59223" fill="#F1E6FF"/>
<rect x="600.621" y="366.408" width="7.18447" height="7.18447" rx="3.59223" fill="#F1E6FF"/>
<rect x="600.621" y="387.961" width="7.18447" height="7.18447" rx="3.59223" fill="#F1E6FF"/>
<rect x="600.621" y="409.515" width="7.18447" height="7.18447" rx="3.59223" fill="#F1E6FF"/>
<rect x="600.621" y="431.068" width="7.18447" height="7.18447" rx="3.59223" fill="#F1E6FF"/>
<rect x="600.621" y="452.621" width="7.18447" height="7.18447" rx="3.59223" fill="#F1E6FF"/>
<rect x="600.621" y="474.175" width="7.18447" height="7.18447" rx="3.59223" fill="#F1E6FF"/>
<rect x="600.621" y="495.728" width="7.18447" height="7.18447" rx="3.59223" fill="#F1E6FF"/>
<rect x="600.621" y="517.282" width="7.18447" height="7.18447" rx="3.59223" fill="#F1E6FF"/>
<rect x="622.175" y="323.301" width="7.18447" height="7.18447" rx="3.59223" fill="#F1E6FF"/>
<rect x="622.175" y="344.854" width="7.18447" height="7.18447" rx="3.59223" fill="#F1E6FF"/>
<rect x="622.175" y="366.408" width="7.18447" height="7.18447" rx="3.59223" fill="#F1E6FF"/>
<rect x="622.175" y="387.961" width="7.18447" height="7.18447" rx="3.59223" fill="#F1E6FF"/>
<rect x="622.175" y="409.515" width="7.18447" height="7.18447" rx="3.59223" fill="#F1E6FF"/>
<rect x="622.175" y="431.068" width="7.18447" height="7.18447" rx="3.59223" fill="#F1E6FF"/>
<rect x="622.175" y="452.621" width="7.18447" height="7.18447" rx="3.59223" fill="#F1E6FF"/>
<rect x="622.175" y="474.175" width="7.18447" height="7.18447" rx="3.59223" fill="#F1E6FF"/>
<rect x="622.175" y="495.728" width="7.18447" height="7.18447" rx="3.59223" fill="#F1E6FF"/>
<rect x="622.175" y="517.282" width="7.18447" height="7.18447" rx="3.59223" fill="#F1E6FF"/>
<rect x="643.728" y="344.854" width="7.18447" height="7.18447" rx="3.59223" fill="#F1E6FF"/>
<rect x="643.728" y="366.408" width="7.18447" height="7.18447" rx="3.59223" fill="#F1E6FF"/>
<rect x="643.728" y="387.961" width="7.18447" height="7.18447" rx="3.59223" fill="#F1E6FF"/>
<rect x="643.728" y="409.515" width="7.18447" height="7.18447" rx="3.59223" fill="#F1E6FF"/>
<rect x="665.281" y="366.408" width="7.18447" height="7.18447" rx="3.59223" fill="#F1E6FF"/>
<rect x="665.281" y="387.961" width="7.18447" height="7.18447" rx="3.59223" fill="#F1E6FF"/>
<rect x="665.281" y="409.515" width="7.18447" height="7.18447" rx="3.59223" fill="#F1E6FF"/>
</svg>
